<svg xmlns="http://www.w3.org/2000/svg" viewBox="0 0 198.98 55.8"><defs><style>.cls-1{font-size:30px;}.cls-1,.cls-4{fill:#bdbdae;font-family:ArialRoundedMT-Light, Arial Rounded MT;}.cls-2{letter-spacing:-0.03em;}.cls-3{fill:#129b9c;}.cls-4{font-size:25px;}</style></defs><title>Asset 1</title><g id="Layer_2" data-name="Layer 2"><g id="Layer_1-2" data-name="Layer 1"><text class="cls-1" transform="translate(44.81 27.54)">SMA<tspan class="cls-2" x="63.45" y="0">R</tspan><tspan x="82.62" y="0">TIUM</tspan></text><polygon class="cls-3" points="35.83 20.11 35.82 20.23 35.8 20.34 35.79 20.45 35.77 20.57 35.75 20.68 35.73 20.79 35.71 20.9 35.69 21.02 35.67 21.13 35.65 21.24 35.63 21.35 35.61 21.46 35.58 21.57 35.56 21.69 35.53 21.8 35.51 21.91 35.48 22.02 35.46 22.13 35.43 22.24 35.4 22.35 35.37 22.46 35.34 22.57 35.31 22.68 35.28 22.79 35.25 22.9 35.22 23.01 35.18 23.12 35.15 23.23 35.12 23.34 35.08 23.45 35.05 23.55 35.01 23.66 34.97 23.77 34.93 23.88 34.9 23.98 34.86 24.09 34.82 24.2 34.78 24.3 34.74 24.41 34.69 24.52 34.65 24.62 34.61 24.73 34.56 24.83 34.52 24.94 34.48 25.04 34.43 25.15 34.38 25.25 34.34 25.35 34.29 25.46 34.24 25.56 34.19 25.66 34.14 25.77 34.09 25.87 34.04 25.97 33.99 26.07 33.94 26.17 33.89 26.27 33.83 26.37 33.78 26.47 33.72 26.57 33.67 26.67 33.61 26.77 33.56 26.87 33.5 26.97 33.44 27.07 33.38 27.17 33.33 27.26 33.27 27.36 33.21 27.46 33.15 27.55 33.08 27.65 33.02 27.75 32.96 27.84 32.9 27.93 32.83 28.03 32.77 28.12 32.7 28.22 32.64 28.31 32.57 28.4 32.51 28.49 32.44 28.59 32.37 28.68 32.3 28.77 32.23 28.86 32.16 28.95 32.09 29.04 32.02 29.13 31.95 29.22 31.88 29.3 31.81 29.39 31.74 29.48 31.66 29.57 31.59 29.65 31.52 29.74 31.44 29.82 31.37 29.91 31.29 29.99 31.21 30.08 31.14 30.16 31.06 30.24 30.98 30.33 30.9 30.41 30.82 30.49 30.75 30.57 30.66 30.65 30.58 30.73 30.5 30.81 30.42 30.89 30.34 30.97 30.26 31.05 30.17 31.13 30.09 31.2 30.01 31.28 29.92 31.35 29.84 31.43 29.75 31.5 29.67 31.58 29.58 31.65 29.49 31.73 29.41 31.8 29.32 31.87 29.23 31.94 29.14 32.01 29.05 32.08 28.96 32.15 28.87 32.22 28.78 32.29 28.69 32.36 28.6 32.43 28.51 32.49 28.42 32.56 28.33 32.63 28.23 32.69 28.14 32.76 28.05 32.82 27.95 32.88 27.86 32.95 27.76 33.01 27.67 33.07 27.57 33.13 27.48 33.19 27.38 33.25 27.29 33.31 27.19 33.37 27.09 33.43 26.99 33.48 26.89 33.54 26.8 33.6 26.7 33.65 26.6 33.71 26.5 33.76 26.4 33.81 26.3 33.87 26.2 33.92 26.1 33.97 26 34.02 25.9 34.07 25.79 34.12 25.69 34.17 25.59 34.22 25.49 34.27 25.38 34.32 25.28 34.36 25.18 34.41 25.07 34.45 24.97 34.5 24.86 34.54 24.76 34.59 24.66 34.63 24.55 34.67 24.45 34.71 24.34 34.75 24.23 34.79 24.13 34.83 24.02 34.87 23.91 34.91 23.81 34.94 23.7 34.98 23.59 35.02 23.49 35.05 23.38 35.09 23.27 35.12 23.16 35.15 23.05 35.19 22.95 35.22 22.84 35.25 22.73 35.28 22.62 35.31 22.51 35.34 22.4 35.37 22.29 35.39 22.18 35.42 22.07 35.45 21.96 35.47 21.85 35.5 21.74 35.52 21.63 35.54 21.61 35.55 19.17 33.08 19.19 2.47 21.63 0 21.65 0 21.76 0.03 21.87 0.05 21.98 0.08 22.09 0.1 22.2 0.13 22.31 0.15 22.42 0.18 22.53 0.21 22.64 0.24 22.75 0.27 22.86 0.3 22.97 0.33 23.08 0.36 23.18 0.4 23.29 0.43 23.4 0.46 23.51 0.5 23.62 0.53 23.72 0.57 23.83 0.61 23.94 0.64 24.04 0.68 24.15 0.72 24.26 0.76 24.36 0.8 24.47 0.84 24.57 0.88 24.68 0.92 24.78 0.97 24.89 1.01 24.99 1.05 25.1 1.1 25.2 1.14 25.3 1.19 25.41 1.24 25.51 1.28 25.61 1.33 25.71 1.38 25.82 1.43 25.92 1.48 26.02 1.53 26.12 1.58 26.22 1.63 26.32 1.69 26.42 1.74 26.52 1.79 26.62 1.85 26.72 1.9 26.82 1.96 26.92 2.01 27.01 2.07 27.11 2.13 27.21 2.19 27.31 2.25 27.4 2.31 27.5 2.37 27.59 2.42 27.69 2.49 27.79 2.55 27.88 2.61 27.97 2.67 28.07 2.74 28.16 2.8 28.25 2.87 28.35 2.93 28.44 3 28.53 3.06 28.62 3.13 28.71 3.2 28.8 3.27 28.89 3.34 28.98 3.4 29.07 3.48 29.16 3.54 29.25 3.62 29.34 3.69 29.43 3.76 29.51 3.83 29.6 3.91 29.69 3.98 29.77 4.05 29.86 4.13 29.94 4.21 30.02 4.28 30.11 4.36 30.19 4.43 30.27 4.51 30.36 4.59 30.44 4.67 30.52 4.75 30.6 4.83 30.68 4.91 30.76 4.99 30.84 5.07 30.92 5.15 31 5.23 31.08 5.32 31.15 5.4 31.23 5.48 31.31 5.57 31.38 5.65 31.46 5.74 31.53 5.82 31.61 5.91 31.68 6 31.75 6.08 31.83 6.17 31.9 6.26 31.97 6.35 32.04 6.43 32.11 6.52 32.18 6.61 32.25 6.7 32.32 6.79 32.39 6.88 32.45 6.98 32.52 7.07 32.59 7.16 32.65 7.25 32.72 7.35 32.78 7.44 32.85 7.53 32.91 7.63 32.97 7.72 33.04 7.82 33.1 7.91 33.16 8.01 33.22 8.11 33.28 8.2 33.34 8.3 33.4 8.4 33.45 8.49 33.51 8.59 33.57 8.69 33.63 8.79 33.68 8.89 33.74 8.99 33.79 9.09 33.84 9.19 33.9 9.29 33.95 9.39 34 9.49 34.05 9.6 34.1 9.7 34.15 9.8 34.2 9.9 34.25 10 34.3 10.11 34.35 10.21 34.39 10.31 34.44 10.42 34.49 10.52 34.53 10.63 34.58 10.73 34.62 10.84 34.66 10.94 34.7 11.05 34.74 11.15 34.79 11.26 34.83 11.37 34.87 11.47 34.9 11.58 34.94 11.69 34.98 11.8 35.02 11.9 35.05 12.01 35.09 12.12 35.12 12.23 35.16 12.34 35.19 12.45 35.22 12.56 35.26 12.67 35.29 12.78 35.32 12.88 35.35 12.99 35.38 13.11 35.41 13.21 35.44 13.32 35.46 13.44 35.49 13.55 35.52 13.66 35.54 13.77 35.56 13.88 35.59 13.99 35.61 14.1 35.63 14.21 35.66 14.33 35.68 14.44 35.7 14.55 35.72 14.66 35.74 14.78 35.76 14.89 35.77 15 35.79 15.11 35.8 15.23 35.82 15.34 35.84 15.45 35.85 15.57 35.86 15.68 35.88 15.79 35.89 15.91 35.9 16.02 35.91 16.13 35.92 16.25 35.93 16.36 35.94 16.47 35.95 16.59 35.95 16.7 35.96 16.82 35.96 16.93 35.97 17.04 35.97 17.16 35.98 17.27 35.98 17.39 35.98 17.5 35.98 17.61 35.98 17.73 35.98 17.84 35.98 17.95 35.98 18.07 35.98 18.18 35.98 18.3 35.97 18.41 35.97 18.52 35.96 18.64 35.96 18.75 35.95 18.87 35.94 18.98 35.94 19.09 35.93 19.21 35.92 19.32 35.91 19.43 35.9 19.55 35.88 19.66 35.87 19.77 35.86 19.89 35.85 20 35.83 20.11"/><polygon class="cls-3" points="0 18.04 0 17.93 0 17.82 0 17.7 0 17.59 0 17.47 0.01 17.36 0.01 17.25 0.01 17.13 0.02 17.02 0.02 16.9 0.03 16.79 0.03 16.68 0.04 16.56 0.05 16.45 0.06 16.34 0.07 16.22 0.08 16.11 0.09 15.99 0.1 15.88 0.11 15.77 0.12 15.65 0.14 15.54 0.15 15.43 0.17 15.31 0.18 15.2 0.2 15.09 0.21 14.98 0.23 14.86 0.25 14.75 0.27 14.64 0.29 14.53 0.31 14.41 0.33 14.3 0.35 14.19 0.38 14.08 0.4 13.97 0.42 13.86 0.45 13.74 0.47 13.63 0.5 13.52 0.53 13.41 0.55 13.3 0.58 13.19 0.61 13.08 0.64 12.97 0.67 12.86 0.7 12.75 0.73 12.64 0.77 12.53 0.8 12.42 0.83 12.31 0.87 12.21 0.9 12.1 0.94 11.99 0.97 11.88 1.01 11.77 1.05 11.67 1.09 11.56 1.13 11.45 1.17 11.35 1.21 11.24 1.25 11.13 1.29 11.03 1.33 10.92 1.37 10.81 1.42 10.71 1.46 10.61 1.51 10.5 1.55 10.4 1.6 10.29 1.65 10.19 1.69 10.09 1.74 9.98 1.79 9.88 1.84 9.78 1.89 9.67 1.94 9.57 1.99 9.47 2.04 9.37 2.1 9.27 2.15 9.17 2.2 9.07 2.26 8.97 2.31 8.87 2.37 8.77 2.43 8.67 2.48 8.57 2.54 8.47 2.6 8.38 2.66 8.28 2.72 8.18 2.78 8.09 2.84 7.99 2.9 7.89 2.96 7.8 3.02 7.7 3.09 7.61 3.15 7.51 3.21 7.42 3.28 7.33 3.34 7.23 3.41 7.14 3.48 7.05 3.54 6.96 3.61 6.87 3.68 6.77 3.75 6.68 3.82 6.59 3.89 6.5 3.96 6.42 4.03 6.33 4.1 6.24 4.17 6.15 4.25 6.06 4.32 5.98 4.39 5.89 4.47 5.8 4.54 5.72 4.62 5.63 4.69 5.55 4.77 5.46 4.85 5.38 4.92 5.3 5 5.21 5.08 5.13 5.16 5.05 5.24 4.97 5.32 4.89 5.4 4.81 5.48 4.73 5.56 4.65 5.64 4.57 5.73 4.5 5.81 4.42 5.89 4.34 5.98 4.26 6.06 4.19 6.14 4.11 6.23 4.04 6.32 3.96 6.4 3.89 6.49 3.82 6.58 3.74 6.66 3.67 6.75 3.6 6.84 3.53 6.93 3.46 7.02 3.39 7.11 3.32 7.2 3.25 7.29 3.18 7.38 3.12 7.47 3.05 7.56 2.98 7.66 2.92 7.75 2.85 7.84 2.79 7.94 2.72 8.03 2.66 8.12 2.6 8.22 2.54 8.31 2.47 8.41 2.41 8.51 2.35 8.6 2.29 8.7 2.23 8.79 2.17 8.89 2.12 8.99 2.06 9.09 2 9.19 1.95 9.29 1.89 9.38 1.83 9.48 1.78 9.58 1.73 9.68 1.68 9.78 1.62 9.88 1.57 9.99 1.52 10.09 1.47 10.19 1.42 10.29 1.37 10.39 1.32 10.5 1.27 10.6 1.23 10.7 1.18 10.81 1.13 10.91 1.09 11.01 1.04 11.12 1 11.22 0.96 11.33 0.92 11.43 0.87 11.54 0.83 11.64 0.79 11.75 0.75 11.86 0.71 11.96 0.67 12.07 0.64 12.18 0.6 12.28 0.56 12.39 0.53 12.5 0.49 12.61 0.46 12.71 0.42 12.82 0.39 12.93 0.36 13.04 0.33 13.15 0.29 13.26 0.26 13.37 0.23 13.47 0.2 13.58 0.18 13.69 0.15 13.8 0.12 13.91 0.1 14.02 0.07 14.13 0.05 14.24 0.02 14.27 0.02 16.7 2.47 16.68 33.07 14.25 35.52 14.22 35.52 14.11 35.49 14 35.47 13.89 35.44 13.78 35.41 13.67 35.39 13.56 35.36 13.45 35.33 13.34 35.3 13.23 35.27 13.12 35.24 13.01 35.21 12.91 35.18 12.8 35.15 12.69 35.11 12.58 35.08 12.47 35.04 12.37 35.01 12.26 34.97 12.15 34.94 12.04 34.9 11.94 34.86 11.83 34.82 11.73 34.78 11.62 34.74 11.52 34.7 11.41 34.66 11.3 34.62 11.2 34.58 11.1 34.53 10.99 34.49 10.89 34.44 10.78 34.4 10.68 34.35 10.58 34.3 10.47 34.26 10.37 34.21 10.27 34.16 10.17 34.11 10.06 34.06 9.96 34.01 9.86 33.96 9.76 33.91 9.66 33.86 9.56 33.8 9.46 33.75 9.36 33.7 9.26 33.64 9.16 33.58 9.07 33.53 8.97 33.47 8.87 33.41 8.77 33.36 8.68 33.3 8.58 33.24 8.48 33.18 8.39 33.12 8.29 33.06 8.2 32.99 8.1 32.93 8.01 32.87 7.92 32.8 7.82 32.74 7.73 32.68 7.64 32.61 7.54 32.55 7.45 32.48 7.36 32.41 7.27 32.34 7.18 32.27 7.09 32.21 7 32.14 6.91 32.07 6.82 32 6.73 31.93 6.64 31.85 6.56 31.78 6.47 31.71 6.38 31.64 6.3 31.56 6.21 31.49 6.13 31.41 6.04 31.34 5.96 31.26 5.87 31.18 5.79 31.11 5.71 31.03 5.63 30.95 5.54 30.87 5.46 30.79 5.38 30.71 5.3 30.63 5.22 30.55 5.14 30.47 5.06 30.39 4.98 30.31 4.91 30.23 4.83 30.14 4.75 30.06 4.68 29.98 4.6 29.89 4.53 29.8 4.45 29.72 4.38 29.63 4.3 29.55 4.23 29.46 4.16 29.37 4.08 29.29 4.01 29.2 3.94 29.11 3.87 29.02 3.8 28.93 3.73 28.84 3.67 28.75 3.6 28.66 3.53 28.57 3.46 28.47 3.4 28.38 3.33 28.29 3.27 28.2 3.2 28.1 3.14 28.01 3.07 27.91 3.01 27.82 2.95 27.72 2.89 27.63 2.82 27.53 2.76 27.44 2.7 27.34 2.65 27.24 2.59 27.14 2.53 27.05 2.47 26.95 2.41 26.85 2.36 26.75 2.3 26.65 2.25 26.55 2.19 26.45 2.14 26.35 2.08 26.25 2.03 26.15 1.98 26.05 1.93 25.95 1.88 25.85 1.83 25.74 1.78 25.64 1.73 25.54 1.68 25.43 1.64 25.33 1.59 25.23 1.54 25.12 1.5 25.02 1.45 24.91 1.41 24.81 1.36 24.7 1.32 24.6 1.28 24.49 1.24 24.39 1.2 24.28 1.16 24.17 1.12 24.07 1.08 23.96 1.04 23.85 1 23.75 0.97 23.64 0.93 23.53 0.89 23.42 0.86 23.31 0.82 23.2 0.79 23.09 0.76 22.99 0.73 22.88 0.69 22.77 0.66 22.66 0.63 22.55 0.6 22.44 0.58 22.33 0.55 22.22 0.52 22.11 0.49 22 0.47 21.88 0.44 21.77 0.42 21.66 0.39 21.55 0.37 21.44 0.35 21.33 0.33 21.21 0.31 21.1 0.29 20.99 0.27 20.88 0.25 20.77 0.23 20.65 0.21 20.54 0.19 20.43 0.18 20.32 0.16 20.2 0.15 20.09 0.13 19.98 0.12 19.86 0.11 19.75 0.1 19.64 0.08 19.52 0.07 19.41 0.06 19.3 0.05 19.18 0.05 19.07 0.04 18.95 0.03 18.84 0.03 18.73 0.02 18.61 0.01 18.5 0.01 18.39 0.01 18.27 0 18.16 0 18.04"/><text class="cls-4" transform="translate(143.16 50.48)">timer</text></g></g></svg>